<?xml version="1.0" encoding="UTF-8"?><svg xmlns="http://www.w3.org/2000/svg" xmlns:xlink="http://www.w3.org/1999/xlink" contentScriptType="text/ecmascript" width="45" zoomAndPan="magnify" contentStyleType="text/css" viewBox="0 0 45 30.000001" height="30.000001" preserveAspectRatio="xMidYMid meet" version="1.0"><defs><clipPath id="clip-0"><path d="M 29 1 L 39.339844 1 L 39.339844 9 L 29 9 Z M 29 1 " clip-rule="nonzero"/></clipPath><clipPath id="clip-1"><path d="M 8.855469 14 L 22 14 L 22 17 L 8.855469 17 Z M 8.855469 14 " clip-rule="nonzero"/></clipPath><clipPath id="clip-2"><path d="M 14 4 L 30 4 L 30 29.03125 L 14 29.03125 Z M 14 4 " clip-rule="nonzero"/></clipPath></defs><g clip-path="url(#clip-0)"><path fill="rgb(13.729858%, 20.779419%, 27.839661%)" d="M 30.878906 6.925781 C 31.386719 7.542969 32.210938 7.894531 33.210938 7.894531 C 33.375 7.894531 33.542969 7.882812 33.707031 7.863281 C 35.792969 7.617188 37.347656 5.8125 38.082031 4.777344 C 38.058594 4.777344 38.039062 4.769531 38.019531 4.777344 C 36.820312 4.777344 35.894531 4.167969 35.078125 3.628906 C 34.355469 3.15625 33.671875 2.703125 32.878906 2.703125 C 32.851562 2.703125 32.824219 2.707031 32.796875 2.707031 C 32.824219 2.789062 32.851562 2.871094 32.878906 2.949219 C 33.15625 3.742188 33.46875 4.640625 32.921875 5.628906 C 32.503906 6.382812 31.730469 6.871094 30.878906 6.925781 Z M 33.210938 8.714844 C 31.558594 8.714844 30.261719 7.917969 29.75 6.582031 C 29.695312 6.4375 29.726562 6.273438 29.828125 6.15625 C 29.933594 6.039062 30.09375 5.996094 30.242188 6.039062 C 30.398438 6.085938 30.558594 6.109375 30.71875 6.109375 C 31.339844 6.109375 31.910156 5.769531 32.214844 5.222656 C 32.582031 4.5625 32.375 3.972656 32.113281 3.222656 C 32.03125 2.980469 31.941406 2.730469 31.875 2.46875 C 31.847656 2.363281 31.863281 2.25 31.917969 2.152344 C 31.976562 2.058594 32.070312 1.988281 32.175781 1.964844 C 32.410156 1.910156 32.648438 1.882812 32.878906 1.882812 C 33.914062 1.882812 34.730469 2.421875 35.519531 2.941406 C 36.3125 3.460938 37.058594 3.953125 38.019531 3.953125 C 38.273438 3.953125 38.535156 3.917969 38.800781 3.851562 C 38.957031 3.808594 39.121094 3.867188 39.222656 3.996094 C 39.320312 4.125 39.335938 4.300781 39.257812 4.445312 C 39.171875 4.601562 37.148438 8.289062 33.804688 8.679688 C 33.605469 8.703125 33.40625 8.714844 33.210938 8.714844 " fill-opacity="1" fill-rule="nonzero"/></g><path fill="rgb(13.729858%, 20.779419%, 27.839661%)" d="M 31.785156 1.121094 C 30.960938 1.488281 29.707031 2.226562 29.253906 3.46875 C 28.96875 4.257812 28.960938 5.363281 29.882812 5.886719 C 29.996094 5.949219 30.117188 6 30.242188 6.039062 C 30.398438 6.085938 30.558594 6.109375 30.71875 6.109375 C 31.339844 6.109375 31.910156 5.769531 32.214844 5.222656 C 32.582031 4.5625 32.375 3.972656 32.113281 3.222656 C 32.03125 2.980469 31.941406 2.730469 31.875 2.46875 C 31.777344 2.097656 31.699219 1.644531 31.785156 1.121094 Z M 30.71875 6.929688 C 30.480469 6.929688 30.242188 6.894531 30.015625 6.828125 C 29.828125 6.773438 29.652344 6.699219 29.484375 6.601562 C 28.375 5.972656 27.976562 4.597656 28.492188 3.183594 C 29.335938 0.878906 32.214844 0.0742188 32.339844 0.0429688 C 32.496094 0 32.660156 0.0546875 32.761719 0.183594 C 32.863281 0.3125 32.878906 0.488281 32.800781 0.632812 C 32.539062 1.136719 32.496094 1.625 32.660156 2.261719 C 32.71875 2.488281 32.800781 2.722656 32.878906 2.949219 C 33.15625 3.742188 33.46875 4.640625 32.921875 5.628906 C 32.476562 6.429688 31.632812 6.929688 30.71875 6.929688 " fill-opacity="1" fill-rule="nonzero"/><path fill="rgb(13.729858%, 20.779419%, 27.839661%)" d="M 31.257812 2.289062 C 31.257812 2.289062 31.316406 2.34375 31.398438 2.460938 C 31.480469 2.578125 31.582031 2.75 31.671875 2.976562 C 31.761719 3.199219 31.839844 3.476562 31.863281 3.785156 C 31.871094 3.859375 31.878906 3.941406 31.875 4.019531 C 31.878906 4.101562 31.875 4.183594 31.867188 4.265625 C 31.855469 4.429688 31.824219 4.597656 31.78125 4.765625 C 31.734375 4.929688 31.671875 5.09375 31.59375 5.246094 C 31.515625 5.398438 31.417969 5.535156 31.3125 5.660156 C 31.207031 5.78125 31.09375 5.886719 30.976562 5.976562 C 30.917969 6.019531 30.859375 6.058594 30.800781 6.09375 C 30.742188 6.128906 30.6875 6.160156 30.632812 6.1875 C 30.519531 6.238281 30.414062 6.28125 30.316406 6.304688 C 30.222656 6.328125 30.140625 6.351562 30.070312 6.359375 C 29.925781 6.375 29.847656 6.371094 29.847656 6.371094 C 29.847656 6.371094 29.902344 6.308594 29.996094 6.210938 C 30.042969 6.164062 30.09375 6.097656 30.15625 6.03125 C 30.1875 6 30.21875 5.964844 30.25 5.925781 C 30.277344 5.886719 30.316406 5.851562 30.347656 5.808594 C 30.378906 5.765625 30.410156 5.722656 30.445312 5.679688 C 30.476562 5.632812 30.507812 5.585938 30.542969 5.539062 C 30.605469 5.445312 30.667969 5.34375 30.726562 5.238281 C 30.75 5.183594 30.777344 5.128906 30.804688 5.074219 C 30.828125 5.015625 30.855469 4.960938 30.878906 4.902344 C 30.921875 4.785156 30.96875 4.667969 31 4.542969 C 31.035156 4.417969 31.0625 4.292969 31.085938 4.164062 C 31.109375 4.035156 31.128906 3.90625 31.144531 3.777344 C 31.160156 3.652344 31.175781 3.523438 31.183594 3.402344 C 31.195312 3.28125 31.203125 3.164062 31.210938 3.054688 C 31.222656 2.828125 31.234375 2.640625 31.242188 2.507812 C 31.253906 2.367188 31.257812 2.289062 31.257812 2.289062 " fill-opacity="1" fill-rule="nonzero"/><path fill="rgb(13.729858%, 20.779419%, 27.839661%)" d="M 32.816406 4.574219 C 32.816406 4.574219 32.84375 4.503906 32.933594 4.40625 C 33.023438 4.316406 33.175781 4.203125 33.386719 4.128906 C 33.492188 4.089844 33.609375 4.066406 33.738281 4.054688 C 33.867188 4.042969 34 4.046875 34.136719 4.066406 C 34.410156 4.105469 34.683594 4.214844 34.917969 4.371094 C 34.976562 4.410156 35.035156 4.449219 35.089844 4.492188 L 35.171875 4.5625 L 35.238281 4.617188 C 35.328125 4.691406 35.417969 4.765625 35.507812 4.835938 C 35.683594 4.976562 35.851562 5.105469 36 5.207031 C 36.148438 5.3125 36.28125 5.390625 36.378906 5.4375 C 36.429688 5.460938 36.46875 5.476562 36.5 5.484375 C 36.527344 5.492188 36.546875 5.5 36.546875 5.5 C 36.546875 5.5 36.53125 5.507812 36.5 5.519531 C 36.472656 5.53125 36.425781 5.546875 36.367188 5.5625 C 36.25 5.585938 36.070312 5.59375 35.867188 5.5625 C 35.664062 5.535156 35.4375 5.472656 35.203125 5.378906 C 35.089844 5.328125 34.972656 5.28125 34.855469 5.214844 L 34.765625 5.167969 C 34.75 5.160156 34.714844 5.148438 34.695312 5.136719 C 34.644531 5.109375 34.589844 5.09375 34.539062 5.066406 C 34.132812 4.886719 33.761719 4.742188 33.433594 4.664062 C 33.269531 4.625 33.117188 4.601562 33.003906 4.585938 C 32.890625 4.574219 32.816406 4.574219 32.816406 4.574219 " fill-opacity="1" fill-rule="nonzero"/><path fill="rgb(13.729858%, 20.779419%, 27.839661%)" d="M 10.730469 16.984375 L 10.730469 19.300781 C 10.730469 21.039062 12.132812 22.457031 13.851562 22.457031 L 16.070312 22.457031 C 17.789062 22.457031 19.191406 21.039062 19.191406 19.300781 L 19.191406 16.984375 Z M 16.070312 23.28125 L 13.851562 23.28125 C 11.683594 23.28125 9.917969 21.496094 9.917969 19.300781 L 9.917969 16.574219 C 9.917969 16.347656 10.097656 16.160156 10.324219 16.160156 L 19.597656 16.160156 C 19.820312 16.160156 20.003906 16.347656 20.003906 16.574219 L 20.003906 19.300781 C 20.003906 21.496094 18.238281 23.28125 16.070312 23.28125 " fill-opacity="1" fill-rule="nonzero"/><path fill="rgb(13.729858%, 20.779419%, 27.839661%)" d="M 14.394531 23.28125 L 14.394531 23.441406 C 14.394531 23.628906 14.542969 23.78125 14.726562 23.78125 L 15.195312 23.78125 C 15.378906 23.78125 15.527344 23.628906 15.527344 23.441406 L 15.527344 23.28125 Z M 15.195312 24.601562 L 14.726562 24.601562 C 14.09375 24.601562 13.582031 24.082031 13.582031 23.441406 L 13.582031 22.867188 C 13.582031 22.640625 13.761719 22.457031 13.988281 22.457031 L 15.933594 22.457031 C 16.160156 22.457031 16.339844 22.640625 16.339844 22.867188 L 16.339844 23.441406 C 16.339844 24.082031 15.824219 24.601562 15.195312 24.601562 " fill-opacity="1" fill-rule="nonzero"/><g clip-path="url(#clip-1)"><path fill="rgb(13.729858%, 20.779419%, 27.839661%)" d="M 10.042969 15.347656 C 9.839844 15.347656 9.671875 15.515625 9.671875 15.722656 C 9.671875 15.929688 9.839844 16.097656 10.042969 16.097656 L 20.375 16.097656 C 20.582031 16.097656 20.746094 15.929688 20.746094 15.722656 C 20.746094 15.515625 20.582031 15.347656 20.375 15.347656 Z M 20.375 16.921875 L 10.042969 16.921875 C 9.390625 16.921875 8.859375 16.382812 8.859375 15.722656 C 8.859375 15.0625 9.390625 14.523438 10.042969 14.523438 L 20.375 14.523438 C 21.027344 14.523438 21.558594 15.0625 21.558594 15.722656 C 21.558594 16.382812 21.027344 16.921875 20.375 16.921875 " fill-opacity="1" fill-rule="nonzero"/></g><path fill="rgb(13.729858%, 20.779419%, 27.839661%)" d="M 12.691406 14.492188 L 13.371094 14.492188 L 13.371094 8.738281 C 13.371094 8.550781 13.21875 8.394531 13.03125 8.394531 C 12.84375 8.394531 12.691406 8.550781 12.691406 8.738281 Z M 13.777344 15.316406 L 12.285156 15.316406 C 12.058594 15.316406 11.878906 15.132812 11.878906 14.90625 L 11.878906 8.738281 C 11.878906 8.097656 12.394531 7.574219 13.03125 7.574219 C 13.667969 7.574219 14.183594 8.097656 14.183594 8.738281 L 14.183594 14.90625 C 14.183594 15.132812 14.003906 15.316406 13.777344 15.316406 " fill-opacity="1" fill-rule="nonzero"/><path fill="rgb(13.729858%, 20.779419%, 27.839661%)" d="M 16.550781 14.492188 L 17.230469 14.492188 L 17.230469 8.738281 C 17.230469 8.550781 17.078125 8.394531 16.890625 8.394531 C 16.703125 8.394531 16.550781 8.550781 16.550781 8.738281 Z M 17.636719 15.316406 L 16.144531 15.316406 C 15.917969 15.316406 15.738281 15.132812 15.738281 14.90625 L 15.738281 8.738281 C 15.738281 8.097656 16.253906 7.574219 16.890625 7.574219 C 17.527344 7.574219 18.042969 8.097656 18.042969 8.738281 L 18.042969 14.90625 C 18.042969 15.132812 17.863281 15.316406 17.636719 15.316406 " fill-opacity="1" fill-rule="nonzero"/><g clip-path="url(#clip-2)"><path fill="rgb(13.729858%, 20.779419%, 27.839661%)" d="M 14.875 24.601562 C 14.980469 25.300781 15.273438 25.9375 15.738281 26.460938 C 16.328125 27.125 17.234375 27.617188 18.433594 27.921875 C 19.183594 28.113281 19.996094 28.210938 20.839844 28.210938 C 21.140625 28.210938 21.449219 28.199219 21.757812 28.171875 C 23.238281 28.054688 24.394531 27.683594 25.292969 27.042969 C 26.304688 26.320312 27.054688 25.207031 27.46875 23.828125 C 27.683594 23.109375 27.847656 22.277344 27.984375 21.214844 C 28.113281 20.210938 28.128906 19.335938 28.03125 18.542969 C 27.863281 17.222656 27.296875 15.957031 26.75 14.734375 C 26.617188 14.441406 26.484375 14.152344 26.359375 13.859375 C 25.726562 12.386719 25.179688 10.796875 25.445312 9.140625 C 25.628906 7.996094 26.128906 6.984375 26.855469 6.289062 C 27.21875 5.9375 27.6875 5.707031 28.246094 5.605469 C 28.34375 5.589844 28.441406 5.578125 28.550781 5.570312 C 28.503906 5.484375 28.464844 5.390625 28.429688 5.300781 C 28.125 5.3125 27.878906 5.359375 27.644531 5.441406 C 27.0625 5.652344 26.550781 6.070312 26.082031 6.722656 C 25.238281 7.894531 24.914062 9.464844 25.171875 11.148438 C 25.367188 12.410156 25.917969 13.632812 26.445312 14.816406 C 26.570312 15.089844 26.691406 15.363281 26.8125 15.636719 C 27.132812 16.378906 27.453125 17.179688 27.636719 18.015625 C 27.863281 19.03125 27.800781 20.070312 27.726562 20.859375 C 27.644531 21.703125 27.476562 22.59375 27.21875 23.582031 C 27.03125 24.289062 26.734375 24.953125 26.335938 25.550781 C 25.410156 26.933594 23.980469 27.480469 22.941406 27.699219 C 22.25 27.84375 21.507812 27.921875 20.792969 27.921875 C 19.566406 27.921875 17.8125 27.703125 16.410156 26.667969 C 15.984375 26.351562 15.628906 25.898438 15.382812 25.363281 C 15.285156 25.144531 15.214844 24.886719 15.175781 24.601562 Z M 20.839844 29.03125 C 19.929688 29.03125 19.050781 28.925781 18.234375 28.71875 C 16.875 28.375 15.832031 27.800781 15.132812 27.011719 C 14.429688 26.21875 14.046875 25.226562 14.023438 24.136719 C 14.019531 23.996094 14.085938 23.863281 14.203125 23.785156 C 14.320312 23.707031 14.464844 23.695312 14.59375 23.75 C 14.636719 23.769531 14.679688 23.78125 14.726562 23.78125 L 15.195312 23.78125 C 15.25 23.78125 15.304688 23.765625 15.351562 23.738281 C 15.476562 23.671875 15.628906 23.671875 15.753906 23.746094 C 15.875 23.820312 15.953125 23.953125 15.953125 24.09375 C 15.957031 24.464844 16.015625 24.785156 16.121094 25.019531 C 16.304688 25.421875 16.578125 25.773438 16.890625 26.003906 C 17.84375 26.710938 19.230469 27.097656 20.792969 27.097656 C 21.453125 27.097656 22.136719 27.027344 22.777344 26.894531 C 23.667969 26.707031 24.890625 26.242188 25.664062 25.089844 C 26.011719 24.566406 26.269531 23.992188 26.433594 23.371094 C 26.679688 22.425781 26.839844 21.578125 26.914062 20.777344 C 26.988281 20.050781 27.042969 19.097656 26.84375 18.195312 C 26.675781 17.425781 26.371094 16.667969 26.066406 15.964844 C 25.949219 15.695312 25.828125 15.425781 25.707031 15.15625 C 25.152344 13.921875 24.582031 12.648438 24.371094 11.273438 C 24.078125 9.375 24.453125 7.585938 25.425781 6.234375 C 25.996094 5.449219 26.632812 4.933594 27.371094 4.667969 C 27.855469 4.492188 28.316406 4.472656 28.625 4.472656 C 28.660156 4.472656 28.699219 4.472656 28.738281 4.472656 C 28.921875 4.476562 29.082031 4.609375 29.125 4.792969 C 29.203125 5.132812 29.390625 5.449219 29.652344 5.691406 C 29.75 5.769531 29.8125 5.886719 29.8125 6.019531 C 29.8125 6.246094 29.628906 6.433594 29.40625 6.433594 C 29.394531 6.433594 29.378906 6.433594 29.363281 6.429688 L 29.347656 6.429688 C 29.132812 6.40625 28.929688 6.386719 28.738281 6.386719 C 28.605469 6.386719 28.492188 6.398438 28.390625 6.414062 C 27.984375 6.488281 27.664062 6.640625 27.414062 6.882812 C 26.816406 7.457031 26.402344 8.304688 26.246094 9.273438 C 26.015625 10.71875 26.523438 12.171875 27.105469 13.53125 C 27.230469 13.820312 27.359375 14.105469 27.488281 14.394531 C 28.0625 15.675781 28.65625 16.996094 28.835938 18.4375 C 28.945312 19.304688 28.929688 20.246094 28.792969 21.320312 C 28.648438 22.429688 28.476562 23.304688 28.246094 24.066406 C 27.78125 25.625 26.921875 26.882812 25.761719 27.714844 C 24.742188 28.441406 23.453125 28.859375 21.820312 28.992188 C 21.496094 29.019531 21.164062 29.03125 20.839844 29.03125 " fill-opacity="1" fill-rule="nonzero"/></g></svg>