<?xml version="1.0" encoding="UTF-8"?><svg xmlns="http://www.w3.org/2000/svg" xmlns:xlink="http://www.w3.org/1999/xlink" contentScriptType="text/ecmascript" width="45" zoomAndPan="magnify" contentStyleType="text/css" viewBox="0 0 45 30.000001" height="30.000001" preserveAspectRatio="xMidYMid meet" version="1.0"><defs><clipPath id="clip-0"><path d="M 7.796875 15 L 37.554688 15 L 37.554688 29.03125 L 7.796875 29.03125 Z M 7.796875 15 " clip-rule="nonzero"/></clipPath></defs><path fill="rgb(14.898682%, 20.779419%, 27.839661%)" d="M 15.816406 6.867188 C 16.058594 6.867188 16.230469 6.660156 16.230469 6.457031 L 16.230469 3.246094 C 16.230469 3.003906 16.023438 2.835938 15.816406 2.835938 C 15.609375 2.835938 15.398438 3.039062 15.398438 3.246094 L 15.398438 6.457031 C 15.367188 6.695312 15.574219 6.867188 15.816406 6.867188 Z M 15.816406 6.867188 " fill-opacity="1" fill-rule="nonzero"/><path fill="rgb(14.898682%, 20.779419%, 27.839661%)" d="M 18.164062 5.261719 C 18.40625 5.261719 18.578125 5.054688 18.578125 4.851562 L 18.578125 0.921875 C 18.578125 0.683594 18.371094 0.511719 18.164062 0.511719 C 17.957031 0.511719 17.75 0.71875 17.75 0.921875 L 17.75 4.851562 C 17.714844 5.089844 17.921875 5.261719 18.164062 5.261719 Z M 18.164062 5.261719 " fill-opacity="1" fill-rule="nonzero"/><path fill="rgb(14.898682%, 20.779419%, 27.839661%)" d="M 20.550781 5.261719 C 20.792969 5.261719 20.964844 5.054688 20.964844 4.851562 L 20.964844 2.835938 C 20.964844 2.597656 20.757812 2.425781 20.550781 2.425781 C 20.34375 2.425781 20.136719 2.628906 20.136719 2.835938 L 20.136719 4.851562 C 20.136719 5.089844 20.308594 5.261719 20.550781 5.261719 Z M 20.550781 5.261719 " fill-opacity="1" fill-rule="nonzero"/><path fill="rgb(14.898682%, 20.779419%, 27.839661%)" d="M 24.144531 6.011719 C 24.386719 6.011719 24.558594 5.804688 24.558594 5.601562 L 24.558594 0.410156 C 24.558594 0.171875 24.351562 0 24.144531 0 C 23.9375 0 23.730469 0.203125 23.730469 0.410156 L 23.730469 5.566406 C 23.730469 5.839844 23.902344 6.011719 24.144531 6.011719 Z M 24.144531 6.011719 " fill-opacity="1" fill-rule="nonzero"/><path fill="rgb(14.898682%, 20.779419%, 27.839661%)" d="M 20.167969 16.292969 C 23.039062 16.292969 25.355469 14.003906 25.355469 11.167969 C 25.355469 8.332031 23.039062 6.046875 20.167969 6.046875 C 17.300781 6.046875 14.984375 8.332031 14.984375 11.167969 C 14.984375 14.003906 17.300781 16.292969 20.167969 16.292969 Z M 18.339844 12.398438 C 18.339844 12.160156 18.546875 11.988281 18.753906 11.988281 C 18.960938 11.988281 19.167969 12.195312 19.167969 12.398438 L 19.167969 12.707031 C 19.167969 13.011719 19.410156 13.253906 19.71875 13.253906 L 20.515625 13.253906 C 20.828125 13.253906 21.070312 13.011719 21.070312 12.707031 L 21.070312 12.058594 C 21.070312 11.953125 21.035156 11.785156 20.792969 11.679688 L 19.132812 11.40625 C 18.613281 11.238281 18.269531 10.757812 18.269531 10.246094 L 18.269531 9.5625 C 18.269531 8.8125 18.890625 8.199219 19.652344 8.164062 L 19.652344 7.855469 C 19.652344 7.617188 19.859375 7.445312 20.066406 7.445312 C 20.273438 7.445312 20.480469 7.652344 20.480469 7.855469 L 20.480469 8.128906 C 21.242188 8.164062 21.863281 8.777344 21.863281 9.53125 L 21.863281 9.835938 C 21.863281 10.074219 21.65625 10.246094 21.449219 10.246094 C 21.242188 10.246094 21.035156 10.042969 21.035156 9.835938 L 21.035156 9.53125 C 21.035156 9.222656 20.792969 8.984375 20.480469 8.949219 L 19.6875 8.949219 C 19.375 8.949219 19.132812 9.1875 19.132812 9.496094 L 19.132812 10.179688 C 19.132812 10.316406 19.238281 10.453125 19.375 10.519531 L 21.070312 10.828125 C 21.585938 11 21.933594 11.476562 21.898438 12.023438 L 21.898438 12.671875 C 21.898438 13.421875 21.277344 14.039062 20.515625 14.070312 L 20.515625 14.414062 C 20.515625 14.652344 20.308594 14.824219 20.101562 14.824219 C 19.894531 14.824219 19.6875 14.617188 19.6875 14.414062 L 19.6875 14.070312 C 18.925781 14.039062 18.304688 13.421875 18.304688 12.671875 Z M 18.339844 12.398438 " fill-opacity="1" fill-rule="nonzero"/><path fill="rgb(14.898682%, 20.779419%, 27.839661%)" d="M 33.164062 26.230469 C 33.164062 26.46875 33.375 26.675781 33.617188 26.675781 C 33.855469 26.675781 34.066406 26.46875 34.066406 26.230469 C 34.066406 25.992188 33.855469 25.789062 33.617188 25.789062 C 33.375 25.820312 33.164062 25.992188 33.164062 26.230469 Z M 33.164062 26.230469 " fill-opacity="1" fill-rule="nonzero"/><g clip-path="url(#clip-0)"><path fill="rgb(14.898682%, 20.779419%, 27.839661%)" d="M 37.105469 28.210938 L 31.644531 28.210938 L 31.644531 18.785156 L 36.207031 18.785156 C 36.449219 18.785156 36.621094 18.582031 36.621094 18.375 C 36.621094 18.171875 36.414062 17.964844 36.207031 17.964844 L 31.644531 17.964844 L 31.644531 16.601562 C 31.644531 16.359375 31.4375 16.191406 31.230469 16.191406 C 31.023438 16.191406 30.816406 16.394531 30.816406 16.601562 L 30.816406 17.964844 L 28.328125 17.964844 C 28.085938 17.964844 27.914062 18.136719 27.914062 18.375 L 27.914062 19.605469 L 27.117188 19.605469 L 24.59375 17.417969 C 24.523438 17.351562 24.421875 17.316406 24.316406 17.316406 L 17.4375 17.316406 C 17.230469 17.316406 17.023438 17.488281 17.023438 17.691406 C 17.023438 17.726562 16.988281 17.964844 16.988281 17.964844 C 16.988281 18.582031 17.199219 19.160156 17.542969 19.640625 L 17.058594 19.640625 C 17.058594 19.640625 15.15625 16.734375 15.089844 16.632812 C 14.46875 15.746094 13.394531 15.132812 12.324219 15.472656 L 11.632812 15.710938 C 11.425781 15.8125 11.285156 16.054688 11.390625 16.257812 C 11.390625 16.257812 11.5625 16.566406 11.5625 16.566406 C 10.59375 16.054688 9.351562 15.984375 8.554688 16.769531 L 8.039062 17.316406 C 7.898438 17.523438 7.933594 17.796875 8.105469 17.933594 L 14.292969 22.132812 C 14.292969 22.132812 24.007812 25.71875 24.007812 25.71875 C 24.074219 25.71875 27.878906 25.71875 27.878906 25.71875 L 27.878906 26.402344 C 27.878906 26.640625 28.050781 26.8125 28.292969 26.8125 L 30.746094 26.8125 L 30.746094 28.621094 C 30.746094 28.863281 30.953125 29.03125 31.160156 29.03125 L 37.035156 29.03125 C 37.277344 29.03125 37.453125 28.828125 37.453125 28.621094 C 37.453125 28.417969 37.3125 28.210938 37.105469 28.210938 Z M 12.566406 16.257812 C 13.328125 16.019531 14.15625 16.632812 14.535156 17.386719 L 15.46875 18.820312 L 12.980469 17.386719 L 12.359375 16.328125 Z M 27.914062 24.867188 L 24.25 24.867188 L 14.707031 21.382812 L 9.003906 17.488281 L 9.144531 17.351562 C 9.730469 16.769531 10.734375 16.976562 11.425781 17.453125 L 15.125 19.570312 L 16.574219 20.425781 C 16.644531 20.460938 16.714844 20.492188 16.78125 20.492188 L 22.96875 20.492188 C 23.210938 20.492188 23.382812 20.289062 23.382812 20.082031 C 23.382812 19.84375 23.175781 19.671875 22.96875 19.671875 L 19.027344 19.671875 C 18.371094 19.570312 17.886719 18.855469 17.820312 18.203125 L 24.109375 18.203125 L 26.632812 20.390625 C 26.703125 20.460938 26.804688 20.492188 26.910156 20.492188 L 27.878906 20.492188 Z M 27.914062 24.867188 " fill-opacity="1" fill-rule="nonzero"/></g></svg>