<?xml version="1.0" encoding="UTF-8"?><svg xmlns="http://www.w3.org/2000/svg" xmlns:xlink="http://www.w3.org/1999/xlink" contentScriptType="text/ecmascript" width="45" zoomAndPan="magnify" contentStyleType="text/css" viewBox="0 0 45 30.000001" height="30.000001" preserveAspectRatio="xMidYMid meet" version="1.0"><defs><clipPath id="clip-0"><path d="M 9.363281 6 L 35.492188 6 L 35.492188 27.507812 L 9.363281 27.507812 Z M 9.363281 6 " clip-rule="nonzero"/></clipPath><clipPath id="clip-1"><path d="M 9.363281 1.378906 L 30 1.378906 L 30 22 L 9.363281 22 Z M 9.363281 1.378906 " clip-rule="nonzero"/></clipPath></defs><g clip-path="url(#clip-0)"><path fill="rgb(14.898682%, 20.779419%, 27.839661%)" d="M 35.492188 26.179688 C 35.496094 26.105469 35.480469 26.035156 35.445312 25.972656 C 35.402344 25.722656 35.292969 25.507812 35.117188 25.332031 C 34.9375 25.152344 34.722656 25.046875 34.472656 25.007812 C 34.222656 24.96875 33.988281 25.007812 33.761719 25.121094 C 33.539062 25.238281 33.367188 25.40625 33.253906 25.632812 L 32.65625 25.632812 L 32.65625 6.542969 C 32.65625 6.394531 32.605469 6.265625 32.496094 6.15625 C 32.390625 6.050781 32.261719 5.996094 32.109375 6 L 29.058594 6 C 28.90625 5.996094 28.777344 6.050781 28.671875 6.15625 C 28.5625 6.265625 28.511719 6.394531 28.511719 6.542969 L 28.511719 25.632812 L 27.25 25.632812 L 27.25 17.34375 C 27.25 17.195312 27.199219 17.066406 27.097656 16.960938 C 26.992188 16.855469 26.867188 16.800781 26.71875 16.796875 L 23.65625 16.796875 C 23.507812 16.796875 23.378906 16.851562 23.269531 16.957031 C 23.164062 17.0625 23.109375 17.191406 23.113281 17.34375 L 23.113281 25.632812 L 21.847656 25.632812 L 21.847656 14.097656 C 21.851562 13.953125 21.800781 13.824219 21.703125 13.71875 C 21.601562 13.613281 21.476562 13.558594 21.332031 13.554688 L 18.257812 13.554688 C 18.105469 13.550781 17.976562 13.605469 17.871094 13.710938 C 17.765625 13.820312 17.710938 13.949219 17.710938 14.097656 L 17.710938 25.632812 L 16.453125 25.632812 L 16.453125 22.742188 C 16.453125 22.59375 16.402344 22.46875 16.300781 22.363281 C 16.199219 22.257812 16.078125 22.203125 15.929688 22.195312 L 12.859375 22.195312 C 12.707031 22.195312 12.578125 22.25 12.472656 22.355469 C 12.363281 22.460938 12.3125 22.589844 12.3125 22.742188 L 12.3125 25.632812 L 11.734375 25.632812 C 11.511719 25.210938 11.160156 24.996094 10.679688 24.992188 C 10.394531 24.992188 10.144531 25.082031 9.929688 25.269531 C 9.710938 25.453125 9.582031 25.6875 9.542969 25.972656 C 9.507812 26.035156 9.492188 26.105469 9.496094 26.179688 C 9.496094 26.25 9.511719 26.320312 9.542969 26.386719 C 9.582031 26.667969 9.710938 26.902344 9.929688 27.089844 C 10.144531 27.277344 10.394531 27.367188 10.679688 27.367188 C 11.160156 27.359375 11.507812 27.148438 11.730469 26.722656 L 33.25 26.722656 C 33.351562 26.921875 33.496094 27.078125 33.683594 27.191406 C 33.871094 27.308594 34.074219 27.367188 34.296875 27.367188 C 34.578125 27.359375 34.828125 27.265625 35.042969 27.082031 C 35.261719 26.898438 35.390625 26.664062 35.441406 26.386719 C 35.472656 26.320312 35.488281 26.25 35.492188 26.179688 Z M 29.605469 25.632812 L 29.605469 7.089844 L 31.585938 7.089844 L 31.585938 25.632812 Z M 29.605469 25.632812 " fill-opacity="1" fill-rule="nonzero"/></g><g clip-path="url(#clip-1)"><path fill="rgb(14.898682%, 20.779419%, 27.839661%)" d="M 10.679688 21.226562 C 10.839844 21.226562 10.996094 21.195312 11.144531 21.132812 C 11.292969 21.070312 11.421875 20.984375 11.535156 20.871094 C 11.652344 20.757812 11.738281 20.625 11.800781 20.480469 C 11.863281 20.332031 11.894531 20.175781 11.898438 20.015625 C 11.886719 19.8125 11.832031 19.617188 11.742188 19.433594 L 15.773438 12.738281 C 15.824219 12.738281 15.867188 12.769531 15.921875 12.769531 C 16.191406 12.761719 16.433594 12.671875 16.648438 12.5 C 16.859375 12.328125 17 12.109375 17.0625 11.847656 L 22.648438 11.167969 C 22.875 11.554688 23.210938 11.75 23.65625 11.753906 C 23.816406 11.753906 23.972656 11.722656 24.121094 11.660156 C 24.269531 11.597656 24.398438 11.511719 24.511719 11.398438 C 24.625 11.285156 24.714844 11.152344 24.773438 11.003906 C 24.835938 10.855469 24.867188 10.703125 24.871094 10.542969 C 24.855469 10.308594 24.789062 10.09375 24.667969 9.890625 L 28.320312 4.003906 L 28.386719 4.003906 C 28.550781 4.003906 28.703125 3.972656 28.855469 3.914062 C 29.003906 3.851562 29.132812 3.761719 29.25 3.648438 C 29.363281 3.535156 29.449219 3.402344 29.511719 3.253906 C 29.574219 3.105469 29.601562 2.949219 29.601562 2.789062 C 29.601562 2.625 29.570312 2.472656 29.507812 2.324219 C 29.445312 2.175781 29.355469 2.042969 29.242188 1.929688 C 29.128906 1.816406 29 1.730469 28.851562 1.667969 C 28.703125 1.605469 28.546875 1.574219 28.386719 1.570312 C 28.226562 1.570312 28.070312 1.601562 27.921875 1.664062 C 27.773438 1.726562 27.640625 1.8125 27.527344 1.925781 C 27.414062 2.039062 27.328125 2.171875 27.265625 2.320312 C 27.203125 2.472656 27.175781 2.625 27.175781 2.789062 C 27.175781 3.035156 27.25 3.261719 27.394531 3.464844 L 23.753906 9.347656 C 23.71875 9.347656 23.691406 9.328125 23.65625 9.328125 C 23.40625 9.324219 23.179688 9.394531 22.972656 9.539062 C 22.765625 9.683594 22.621094 9.875 22.539062 10.109375 L 16.847656 10.804688 C 16.6875 10.605469 16.484375 10.46875 16.238281 10.394531 C 15.992188 10.324219 15.75 10.332031 15.507812 10.414062 C 15.265625 10.5 15.070312 10.648438 14.925781 10.855469 C 14.777344 11.066406 14.703125 11.300781 14.707031 11.554688 C 14.703125 11.765625 14.761719 11.960938 14.878906 12.136719 L 10.832031 18.832031 C 10.785156 18.816406 10.734375 18.804688 10.679688 18.800781 C 10.515625 18.792969 10.359375 18.820312 10.207031 18.878906 C 10.050781 18.941406 9.917969 19.027344 9.796875 19.140625 C 9.679688 19.253906 9.589844 19.386719 9.523438 19.539062 C 9.460938 19.691406 9.429688 19.847656 9.429688 20.011719 C 9.429688 20.175781 9.460938 20.335938 9.523438 20.484375 C 9.589844 20.636719 9.679688 20.769531 9.796875 20.882812 C 9.917969 21 10.050781 21.085938 10.207031 21.144531 C 10.359375 21.203125 10.515625 21.230469 10.679688 21.226562 Z M 10.679688 21.226562 " fill-opacity="1" fill-rule="nonzero"/></g></svg>