<?xml version="1.0" encoding="UTF-8"?><svg xmlns="http://www.w3.org/2000/svg" xmlns:xlink="http://www.w3.org/1999/xlink" contentScriptType="text/ecmascript" width="45" zoomAndPan="magnify" contentStyleType="text/css" viewBox="0 0 45 30.000001" height="30.000001" preserveAspectRatio="xMidYMid meet" version="1.0"><defs><clipPath id="clip-0"><path d="M 10.160156 12 L 31 12 L 31 29.03125 L 10.160156 29.03125 Z M 10.160156 12 " clip-rule="nonzero"/></clipPath><clipPath id="clip-1"><path d="M 26 0 L 37.742188 0 L 37.742188 13 L 26 13 Z M 26 0 " clip-rule="nonzero"/></clipPath></defs><g clip-path="url(#clip-0)"><path fill="rgb(14.898682%, 20.779419%, 27.839661%)" d="M 23.449219 24.671875 C 22.222656 24.710938 20.988281 24.726562 19.761719 24.800781 C 18.453125 24.875 17.148438 25.023438 15.839844 25.105469 C 15.328125 25.136719 14.273438 25.140625 13.796875 25.132812 C 13.671875 25.132812 13.570312 25.039062 13.558594 24.917969 C 13.46875 24.015625 12.742188 20.609375 12.425781 19.136719 C 12.054688 17.417969 11.65625 15.707031 11.191406 14.011719 C 11.152344 13.78125 11.039062 13.5 10.964844 13.277344 C 11.859375 13.0625 13.0625 13.035156 14.03125 12.988281 C 16.574219 12.867188 19.109375 12.664062 21.65625 12.609375 C 22.882812 12.585938 24.117188 12.605469 25.339844 12.546875 C 25.855469 12.519531 27.007812 12.527344 27.515625 12.527344 C 27.65625 12.527344 27.78125 12.613281 27.832031 12.742188 C 27.863281 12.816406 27.894531 12.882812 27.90625 12.933594 C 28.035156 13.382812 28.570312 16.257812 28.828125 17.234375 C 29.257812 18.851562 30.054688 22.984375 30.390625 24.039062 C 30.425781 24.152344 30.34375 24.238281 30.230469 24.269531 C 29.355469 24.539062 24.589844 24.632812 23.449219 24.671875 Z M 26.050781 27.5625 C 26.042969 27.578125 26.035156 27.59375 26.027344 27.609375 C 25.964844 27.742188 25.777344 27.761719 25.691406 27.640625 C 25.507812 27.386719 25.277344 27.078125 25.128906 26.875 C 24.710938 26.292969 24.332031 25.679688 23.847656 25.152344 C 23.976562 25.148438 24.226562 25.140625 24.355469 25.136719 C 24.394531 25.203125 26.164062 27.3125 26.050781 27.5625 Z M 20.328125 25.453125 C 20.191406 25.839844 19.9375 26.214844 19.734375 26.574219 C 19.519531 26.957031 19.296875 27.332031 19.078125 27.714844 C 18.996094 27.855469 18.617188 28.390625 18.585938 28.433594 C 18.597656 28.417969 18.613281 28.398438 18.625 28.382812 C 18.535156 28.492188 18.324219 28.542969 18.132812 28.53125 C 17.941406 28.519531 17.824219 28.3125 17.914062 28.140625 C 18.117188 27.746094 18.535156 27.214844 18.703125 26.960938 C 18.855469 26.730469 19.253906 26.050781 19.738281 25.332031 C 19.949219 25.320312 20.160156 25.3125 20.375 25.300781 C 20.355469 25.363281 20.335938 25.417969 20.328125 25.453125 Z M 28.722656 14.554688 C 28.652344 14.105469 28.585938 13.65625 28.488281 13.21875 C 28.425781 12.941406 28.355469 12.265625 28.085938 12.105469 C 28.035156 12.074219 27.976562 12.066406 27.925781 12.078125 C 27.898438 12.0625 25.152344 12.0625 23.851562 12.078125 C 22.410156 12.097656 20.972656 12.125 19.535156 12.175781 C 17.078125 12.265625 14.632812 12.519531 12.179688 12.605469 C 11.722656 12.621094 11.117188 12.699219 10.660156 12.851562 C 10.25 12.988281 10.597656 13.765625 10.613281 13.835938 C 10.675781 14.085938 11.1875 15.957031 11.308594 16.445312 C 11.613281 17.707031 11.890625 18.976562 12.15625 20.246094 C 12.417969 21.472656 13.003906 25.511719 13.179688 25.613281 C 13.386719 25.734375 13.855469 25.65625 14.09375 25.65625 C 14.398438 25.65625 14.703125 25.652344 15.007812 25.640625 C 15.644531 25.617188 16.285156 25.570312 16.921875 25.519531 C 17.683594 25.453125 18.445312 25.40625 19.207031 25.363281 C 18.847656 25.738281 18.441406 26.464844 18.3125 26.65625 C 18.179688 26.859375 17.332031 28.335938 17.378906 28.492188 C 17.476562 28.828125 17.878906 29.003906 18.199219 29.027344 C 18.394531 29.035156 18.757812 28.972656 18.945312 28.792969 C 19.089844 28.730469 19.222656 28.484375 19.269531 28.378906 C 19.4375 27.988281 19.707031 27.617188 19.917969 27.246094 C 20.140625 26.859375 20.367188 26.472656 20.570312 26.074219 C 20.667969 25.882812 20.886719 25.550781 20.898438 25.277344 C 21.699219 25.242188 22.5 25.207031 23.304688 25.175781 C 23.304688 25.230469 23.863281 25.929688 24.070312 26.21875 C 24.496094 26.8125 24.875 27.664062 25.492188 28.074219 C 25.917969 28.363281 26.230469 28.105469 26.316406 28.046875 C 26.644531 27.820312 26.535156 27.515625 26.390625 27.207031 C 26.070312 26.492188 25.492188 25.671875 24.902344 25.105469 C 25.9375 25.054688 30.269531 25.101562 30.828125 24.597656 C 30.96875 24.472656 28.863281 15.433594 28.722656 14.554688 " fill-opacity="1" fill-rule="nonzero"/></g><path fill="rgb(14.898682%, 20.779419%, 27.839661%)" d="M 13.285156 17.523438 C 13.675781 17.539062 14.230469 17.4375 14.4375 17.425781 C 14.945312 17.398438 15.449219 17.367188 15.957031 17.332031 C 16.492188 17.296875 17.027344 17.257812 17.5625 17.21875 C 17.589844 17.363281 17.617188 17.503906 17.644531 17.648438 C 17.824219 18.609375 18.0625 19.558594 18.289062 20.507812 C 17.21875 20.609375 16.148438 20.722656 15.078125 20.816406 C 14.792969 20.839844 14.507812 20.863281 14.222656 20.871094 C 14.179688 20.875 14.128906 20.871094 14.070312 20.867188 C 13.847656 19.996094 13.601562 19.128906 13.425781 18.246094 C 13.375 18.003906 13.332031 17.761719 13.285156 17.523438 Z M 12.523438 14.183594 C 13.578125 14.152344 14.632812 13.964844 15.675781 13.886719 C 16.011719 13.863281 16.34375 13.839844 16.675781 13.816406 C 16.847656 14.234375 16.996094 14.652344 17.113281 15.085938 C 17.257812 15.625 17.367188 16.171875 17.472656 16.722656 C 16.675781 16.785156 15.878906 16.847656 15.082031 16.894531 C 14.539062 16.925781 13.996094 16.953125 13.453125 16.976562 C 13.398438 16.980469 13.292969 16.988281 13.1875 17.007812 C 13.117188 16.632812 13.042969 16.265625 12.960938 15.894531 C 12.871094 15.503906 12.777344 15.117188 12.664062 14.734375 C 12.628906 14.613281 12.589844 14.386719 12.523438 14.183594 Z M 22.207031 13.679688 C 22.359375 13.683594 22.511719 13.683594 22.660156 13.683594 C 22.660156 13.691406 22.660156 13.703125 22.660156 13.710938 C 22.691406 14.132812 22.777344 14.554688 22.847656 14.96875 C 22.933594 15.464844 23.035156 15.960938 23.144531 16.453125 C 22.519531 16.464844 21.898438 16.476562 21.273438 16.492188 C 20.167969 16.523438 19.066406 16.601562 17.964844 16.683594 C 17.785156 15.699219 17.582031 14.710938 17.195312 13.785156 C 18.863281 13.691406 20.539062 13.640625 22.207031 13.679688 Z M 26.972656 13.449219 C 26.984375 13.8125 27.128906 14.234375 27.191406 14.574219 C 27.292969 15.136719 27.398438 15.699219 27.503906 16.261719 C 27.175781 16.242188 26.734375 16.339844 26.585938 16.347656 C 25.992188 16.378906 25.398438 16.402344 24.804688 16.417969 C 24.417969 16.429688 24.03125 16.4375 23.648438 16.445312 C 23.578125 16.128906 23.511719 15.816406 23.449219 15.503906 C 23.371094 15.101562 23.296875 14.695312 23.238281 14.289062 C 23.207031 14.078125 23.207031 13.878906 23.171875 13.675781 C 23.886719 13.65625 26.941406 13.457031 26.972656 13.449219 Z M 29.03125 22.875 C 29.0625 22.972656 29.097656 23.136719 29.152344 23.289062 C 27.90625 23.246094 26.664062 23.3125 25.421875 23.402344 C 25.40625 23.359375 25.394531 23.320312 25.382812 23.28125 C 25.304688 22.984375 25.285156 22.671875 25.21875 22.371094 C 25.089844 21.777344 24.929688 21.195312 24.765625 20.609375 C 25.402344 20.566406 26.042969 20.527344 26.679688 20.511719 C 27.222656 20.496094 27.761719 20.511719 28.300781 20.523438 C 28.339844 20.523438 28.378906 20.527344 28.417969 20.527344 C 28.519531 20.933594 28.625 21.339844 28.734375 21.742188 C 28.839844 22.121094 28.921875 22.503906 29.03125 22.875 Z M 23.417969 17.621094 C 23.625 18.460938 23.859375 19.292969 24.09375 20.125 C 23.164062 20.1875 22.238281 20.257812 21.3125 20.292969 C 20.464844 20.328125 19.621094 20.390625 18.777344 20.464844 C 18.566406 19.585938 18.347656 18.703125 18.175781 17.816406 C 18.136719 17.605469 18.097656 17.394531 18.058594 17.183594 C 19.402344 17.082031 20.742188 16.996094 22.097656 16.96875 C 22.484375 16.960938 22.867188 16.953125 23.253906 16.945312 C 23.308594 17.171875 23.363281 17.394531 23.417969 17.621094 Z M 27.675781 17.15625 C 27.863281 18.121094 28.070312 19.078125 28.300781 20.027344 C 27.074219 19.964844 25.84375 20.015625 24.617188 20.089844 C 24.398438 19.335938 24.171875 18.582031 23.976562 17.820312 C 23.902344 17.527344 23.832031 17.230469 23.761719 16.9375 C 24.21875 16.929688 24.675781 16.917969 25.132812 16.902344 C 25.445312 16.894531 26.945312 16.953125 27.597656 16.757812 C 27.625 16.890625 27.648438 17.023438 27.675781 17.15625 Z M 22.191406 23.65625 C 21.316406 23.714844 20.441406 23.777344 19.5625 23.835938 C 19.546875 23.75 19.519531 23.667969 19.496094 23.597656 C 19.375 23.253906 19.320312 22.886719 19.25 22.527344 C 19.140625 22 19.019531 21.476562 18.894531 20.953125 C 20.390625 20.851562 21.890625 20.792969 23.390625 20.703125 C 23.671875 20.683594 23.957031 20.664062 24.238281 20.644531 C 24.390625 21.179688 24.539062 21.710938 24.679688 22.25 C 24.726562 22.429688 24.769531 23.03125 24.902344 23.441406 C 23.996094 23.515625 23.09375 23.59375 22.191406 23.65625 Z M 14.730469 24.066406 C 14.703125 23.984375 14.507812 22.925781 14.441406 22.550781 C 14.371094 22.152344 14.285156 21.757812 14.191406 21.367188 C 15.179688 21.332031 16.164062 21.195312 17.144531 21.097656 C 17.566406 21.054688 17.984375 21.019531 18.40625 20.988281 C 18.5 21.386719 18.589844 21.785156 18.675781 22.1875 C 18.730469 22.453125 18.804688 23.40625 19.046875 23.867188 C 17.96875 23.929688 15.09375 24.050781 14.730469 24.066406 Z M 14.34375 24.402344 C 14.375 24.742188 22.25 24.152344 24.378906 23.992188 C 25.492188 23.910156 26.601562 23.816406 27.71875 23.785156 C 28.261719 23.769531 28.800781 23.785156 29.34375 23.789062 C 29.515625 23.792969 29.71875 23.820312 29.761719 23.597656 C 29.78125 23.515625 29.753906 23.441406 29.703125 23.386719 C 29.675781 23.03125 29.4375 22.480469 29.402344 22.351562 C 28.632812 19.320312 27.433594 13.191406 27.40625 13.160156 C 27.324219 12.882812 26.011719 13.09375 25.726562 13.101562 C 25.097656 13.121094 16.746094 13.28125 16.664062 13.34375 C 15.652344 13.402344 14.640625 13.480469 13.628906 13.585938 C 13.34375 13.613281 13.058594 13.640625 12.769531 13.664062 C 12.550781 13.679688 12.230469 13.640625 12.03125 13.714844 C 11.890625 13.765625 11.921875 14.164062 12.0625 14.453125 C 12.25 14.839844 12.308594 15.277344 12.40625 15.695312 C 12.621094 16.601562 12.777344 17.515625 12.957031 18.425781 C 13.128906 19.277344 14.328125 24.390625 14.34375 24.402344 " fill-opacity="1" fill-rule="nonzero"/><path fill="rgb(14.898682%, 20.779419%, 27.839661%)" d="M 34.558594 6.140625 C 34.507812 7.273438 33.738281 8.347656 32.746094 8.808594 C 31.597656 9.34375 30.195312 8.832031 29.554688 7.847656 C 28.914062 6.859375 28.855469 5.382812 29.300781 4.453125 C 29.972656 3.152344 31.433594 2.953125 32.691406 3.46875 C 33.753906 3.902344 34.613281 4.933594 34.558594 6.140625 Z M 30.039062 3.097656 C 28.621094 3.890625 28.328125 5.726562 28.785156 7.144531 C 29.148438 8.285156 30.398438 9.417969 31.695312 9.417969 C 32.96875 9.417969 34.171875 8.3125 34.699219 7.226562 C 35.3125 5.949219 34.804688 4.5 33.722656 3.652344 C 32.75 2.894531 31.175781 2.460938 30.039062 3.097656 " fill-opacity="1" fill-rule="nonzero"/><g clip-path="url(#clip-1)"><path fill="rgb(14.898682%, 20.779419%, 27.839661%)" d="M 34.765625 3.332031 C 34.785156 3.367188 34.820312 3.421875 34.867188 3.480469 C 34.867188 3.5 34.867188 3.519531 34.871094 3.542969 C 34.910156 3.71875 35.203125 3.773438 35.34375 3.808594 C 35.789062 3.929688 36.261719 3.863281 36.710938 3.960938 C 36.578125 4.257812 36.496094 4.550781 36.332031 4.839844 C 36.195312 5.078125 35.914062 5.429688 35.910156 5.710938 C 35.910156 5.726562 35.914062 5.742188 35.914062 5.753906 C 35.78125 6.132812 36.898438 7.15625 37.039062 7.296875 C 36.722656 7.476562 36.359375 7.554688 36.042969 7.734375 C 35.882812 7.820312 35.605469 8 35.472656 8.199219 C 35.433594 8.242188 35.410156 8.3125 35.402344 8.390625 C 35.402344 8.394531 35.402344 8.394531 35.402344 8.394531 C 35.367188 8.804688 35.679688 9.570312 35.675781 9.804688 C 35.332031 9.75 35.015625 9.621094 34.660156 9.617188 C 34.34375 9.613281 34.035156 9.664062 33.722656 9.714844 C 33.691406 9.703125 33.652344 9.699219 33.597656 9.699219 C 33.324219 9.71875 33.191406 10.28125 33.132812 10.492188 C 33.035156 10.863281 33.003906 11.246094 32.921875 11.617188 C 32.65625 11.40625 32.429688 11.152344 32.144531 10.957031 C 31.90625 10.796875 31.644531 10.667969 31.382812 10.539062 C 31.382812 10.539062 31.382812 10.535156 31.378906 10.53125 C 31.046875 10.039062 29.523438 11.121094 29.148438 11.253906 C 29.078125 10.570312 29.542969 9.519531 28.980469 8.980469 C 28.78125 8.589844 27.484375 8.574219 27.230469 8.585938 C 27.484375 8.167969 27.730469 7.699219 27.816406 7.214844 C 27.855469 6.988281 27.863281 6.734375 27.738281 6.53125 C 27.726562 6.511719 27.707031 6.488281 27.691406 6.464844 C 27.660156 6.367188 27.59375 6.273438 27.542969 6.203125 C 27.292969 5.847656 26.9375 5.628906 26.664062 5.335938 C 26.460938 5.117188 26.578125 5.085938 26.8125 4.957031 C 27.019531 4.84375 27.25 4.785156 27.460938 4.6875 C 27.625 4.613281 28.390625 4.242188 28.273438 3.964844 C 28.347656 3.832031 28.386719 2.722656 28.289062 2.292969 C 28.738281 2.464844 29.226562 2.539062 29.703125 2.535156 C 29.859375 2.535156 30.125 2.5625 30.289062 2.492188 C 30.449219 2.457031 30.613281 2.25 30.707031 2.128906 C 30.988281 1.765625 31.097656 1.304688 31.289062 0.894531 C 31.542969 1.28125 32.519531 2.023438 32.5625 2.046875 C 32.738281 2.140625 33.039062 2.003906 33.203125 1.941406 C 33.679688 1.761719 34.132812 1.46875 34.625 1.34375 C 34.582031 2.023438 34.40625 2.6875 34.765625 3.332031 Z M 36.769531 3.972656 C 36.769531 3.976562 36.789062 4.003906 36.769531 3.972656 Z M 34.820312 0.917969 C 34.515625 0.804688 34.019531 1.121094 33.753906 1.242188 C 33.511719 1.351562 33.101562 1.636719 32.808594 1.707031 C 32.671875 1.632812 32.535156 1.511719 32.417969 1.441406 C 32.242188 1.339844 31.371094 0.0078125 31.113281 0.351562 C 30.84375 0.714844 30.746094 1.15625 30.554688 1.554688 C 30.46875 1.734375 30.371094 1.898438 30.222656 2.027344 C 30.207031 2.039062 30.191406 2.054688 30.171875 2.066406 C 30.023438 2.0625 29.832031 2.109375 29.714844 2.109375 C 29.5 2.113281 29.289062 2.097656 29.078125 2.0625 C 28.847656 2.023438 28.617188 1.96875 28.398438 1.878906 C 28.238281 1.8125 27.96875 1.582031 27.804688 1.757812 C 27.671875 1.898438 27.816406 2.15625 27.855469 2.316406 C 27.917969 2.566406 27.964844 2.824219 27.972656 3.085938 C 27.980469 3.277344 27.96875 3.484375 27.902344 3.664062 C 27.851562 3.800781 27.910156 3.941406 27.660156 4.074219 C 27.523438 4.1875 27.371094 4.265625 27.207031 4.332031 C 26.796875 4.503906 26.433594 4.640625 26.125 4.972656 C 25.867188 5.25 26.347656 5.625 26.542969 5.804688 C 26.695312 5.941406 26.785156 6.011719 26.933594 6.15625 C 27.09375 6.3125 27.171875 6.484375 27.285156 6.652344 C 27.335938 6.742188 27.40625 6.839844 27.414062 6.929688 C 27.445312 7.265625 27.242188 7.660156 27.097656 7.953125 C 27.011719 8.121094 26.921875 8.285156 26.820312 8.441406 C 26.773438 8.515625 26.636719 8.664062 26.625 8.757812 C 26.5625 9.160156 27.179688 9.011719 27.410156 9.007812 C 27.761719 9 28.136719 9.003906 28.460938 9.164062 C 28.519531 9.191406 28.601562 9.25 28.683594 9.289062 C 28.6875 9.289062 28.6875 9.292969 28.691406 9.296875 C 28.9375 9.582031 28.828125 10.078125 28.785156 10.417969 C 28.742188 10.730469 28.585938 11.335938 28.828125 11.605469 C 29.085938 11.886719 29.65625 11.496094 29.910156 11.363281 C 30.234375 11.199219 30.597656 10.957031 30.960938 10.871094 C 30.988281 10.867188 31.027344 10.863281 31.070312 10.859375 C 31.085938 10.871094 31.109375 10.878906 31.128906 10.890625 C 31.46875 11.078125 31.824219 11.222656 32.128906 11.472656 C 32.359375 11.664062 32.710938 12.167969 33.046875 12.144531 C 33.347656 12.128906 33.351562 11.644531 33.390625 11.417969 C 33.453125 11.058594 33.488281 10.683594 33.625 10.339844 C 33.644531 10.296875 33.683594 10.222656 33.722656 10.144531 C 33.734375 10.140625 33.75 10.140625 33.761719 10.136719 C 34.136719 10.101562 34.492188 10.007812 34.875 10.054688 C 35.152344 10.089844 35.519531 10.304688 35.800781 10.238281 C 36.121094 10.164062 36.117188 9.855469 36.082031 9.582031 C 36.042969 9.257812 35.921875 8.945312 35.863281 8.628906 C 35.855469 8.589844 35.851562 8.535156 35.847656 8.476562 C 35.929688 8.386719 35.996094 8.277344 36.101562 8.199219 C 36.21875 8.113281 36.351562 8.050781 36.480469 7.996094 C 36.78125 7.863281 37.128906 7.785156 37.394531 7.578125 C 37.675781 7.355469 37.535156 7.195312 37.328125 6.980469 C 37.089844 6.738281 36.820312 6.523438 36.605469 6.257812 C 36.53125 6.171875 36.449219 5.957031 36.339844 5.800781 C 36.371094 5.726562 36.390625 5.636719 36.414062 5.582031 C 36.484375 5.421875 36.574219 5.273438 36.660156 5.125 C 36.835938 4.8125 37.398438 3.984375 37.050781 3.652344 C 36.835938 3.449219 36.359375 3.492188 36.085938 3.476562 C 35.835938 3.460938 35.5625 3.453125 35.324219 3.367188 C 35.292969 3.332031 35.261719 3.300781 35.230469 3.261719 C 35.132812 3.128906 35.070312 2.992188 35.027344 2.832031 C 34.933594 2.488281 34.921875 2.09375 34.980469 1.742188 C 35.023438 1.476562 35.175781 1.050781 34.820312 0.917969 " fill-opacity="1" fill-rule="nonzero"/></g></svg>